<svg xmlns="http://www.w3.org/2000/svg" viewBox="0 0 49.58 70"><defs><style>.cls-1{fill:#e5792a;}</style></defs><g id="Capa_2" data-name="Capa 2"><g id="Capa_1-2" data-name="Capa 1"><path class="cls-1" d="M24.79,35A17.51,17.51,0,0,0,39,7.29h4.74V0h-19a17.5,17.5,0,0,0,0,35Zm0-26.25a8.75,8.75,0,0,1,8.09,5.4A8.74,8.74,0,0,1,31,23.69a8.79,8.79,0,0,1-9.54,1.9A8.75,8.75,0,0,1,24.79,8.75Z"/><path class="cls-1" d="M32.08,35H17.5A17.5,17.5,0,0,0,0,52.5H8.75a8.76,8.76,0,0,1,8.75-8.75H32.08a8.75,8.75,0,1,1,0,17.5H17.5V70H32.08a17.5,17.5,0,1,0,0-35Z"/></g></g></svg>