<svg xmlns="http://www.w3.org/2000/svg" viewBox="0 0 194.73 274.91"><defs><style>.cls-1{fill:#282828;}</style></defs><g id="Capa_2" data-name="Capa 2"><g id="Capa_1-2" data-name="Capa 1"><path class="cls-1" d="M97.36,137.45A68.73,68.73,0,0,0,153.19,28.64h18.63V0H97.36a68.73,68.73,0,0,0,0,137.45Zm0-103.09A34.37,34.37,0,1,1,63,68.73,34.37,34.37,0,0,1,97.36,34.36Z"/><path class="cls-1" d="M126,137.45H68.73A68.73,68.73,0,0,0,0,206.18H34.36a34.36,34.36,0,0,1,34.37-34.36H126a34.36,34.36,0,1,1,0,68.72H68.73v34.37H126a68.73,68.73,0,0,0,0-137.46Z"/></g></g></svg>