<svg width="157" height="70" viewBox="0 0 157 70" fill="none" xmlns="http://www.w3.org/2000/svg">
<g clip-path="url(#clip0)">
<path d="M119.912 26.4813C119.94 24.1654 119.508 21.8671 118.641 19.7195C117.775 17.5719 116.49 15.6177 114.862 13.9702C113.234 12.3227 111.296 11.0147 109.159 10.122C107.022 9.22922 104.729 8.76953 102.413 8.76953C100.097 8.76953 97.8041 9.22922 95.6671 10.122C93.5301 11.0147 91.5915 12.3227 89.9638 13.9702C88.336 15.6177 87.0515 17.5719 86.1846 19.7195C85.3177 21.8671 84.8857 24.1654 84.9136 26.4813V43.9793H93.6627V26.4813C93.6429 25.3196 93.8545 24.1656 94.2854 23.0866C94.7162 22.0076 95.3576 21.0252 96.1721 20.1967C96.9866 19.3682 97.958 18.7101 99.0295 18.2609C100.101 17.8117 101.251 17.5804 102.413 17.5804C103.575 17.5804 104.725 17.8117 105.797 18.2609C106.868 18.7101 107.839 19.3682 108.654 20.1967C109.468 21.0252 110.11 22.0076 110.541 23.0866C110.971 24.1656 111.183 25.3196 111.163 26.4813V43.9793H119.912V26.4813Z" fill="#E5792A"/>
<path d="M141.907 16.9225V9.62992H133.156V0.394531H124.406V26.4812C124.407 31.1223 126.251 35.573 129.533 38.8544C132.815 42.1359 137.266 43.9793 141.907 43.9793V35.2328C139.586 35.2328 137.36 34.3108 135.719 32.6696C134.078 31.0283 133.156 28.8023 133.156 26.4812V16.9225H141.907Z" fill="#E5792A"/>
<path d="M155.711 16.2759H146.962V43.9846H155.711V16.2759Z" fill="#E5792A"/>
<path d="M151.257 11.5242C154.33 11.5242 156.821 9.03332 156.821 5.96061C156.821 2.8879 154.33 0.396973 151.257 0.396973C148.185 0.396973 145.694 2.8879 145.694 5.96061C145.694 9.03332 148.185 11.5242 151.257 11.5242Z" fill="#E5792A"/>
<path d="M24.7908 34.9987C28.0097 34.9986 31.1662 34.1106 33.9131 32.4325C36.6601 30.7544 38.891 28.3513 40.3604 25.4873C41.8299 22.6234 42.481 19.4096 42.2422 16.1996C42.0034 12.9895 40.8838 9.90751 39.0067 7.29257H43.7504V0H24.7908C20.1862 0.0555442 15.7891 1.92367 12.5526 5.1994C9.31618 8.47513 7.50122 12.8945 7.50122 17.4994C7.50122 22.1043 9.31618 26.5236 12.5526 29.7993C15.7891 33.0751 20.1862 34.9432 24.7908 34.9987ZM24.7908 8.74905C26.5218 8.74854 28.2141 9.26138 29.6536 10.2227C31.0931 11.184 32.2152 12.5507 32.878 14.1498C33.5408 15.7489 33.7144 17.5086 33.3771 19.2064C33.0397 20.9042 32.2064 22.4639 30.9825 23.688C29.7587 24.9122 28.1993 25.746 26.5016 26.0839C24.8039 26.4218 23.0441 26.2486 21.4448 25.5863C19.8455 24.924 18.4786 23.8023 17.5168 22.363C16.5551 20.9238 16.0417 19.2316 16.0417 17.5006C16.0417 15.18 16.9634 12.9544 18.6041 11.3132C20.2448 9.67206 22.4701 8.74972 24.7908 8.74905Z" fill="#E5792A"/>
<path d="M32.0832 34.9985H17.5006C12.8592 34.9985 8.40782 36.8423 5.12582 40.1244C1.84381 43.4064 0 47.8577 0 52.4992H8.74905C8.74905 51.35 8.97543 50.2121 9.41527 49.1505C9.85511 48.0888 10.4998 47.1242 11.3125 46.3118C12.1252 45.4993 13.09 44.8549 14.1517 44.4154C15.2135 43.9758 16.3515 43.7498 17.5006 43.7501H32.0832C34.4036 43.7501 36.629 44.6719 38.2697 46.3127C39.9105 47.9534 40.8323 50.1788 40.8323 52.4992C40.8323 54.8196 39.9105 57.0449 38.2697 58.6857C36.629 60.3265 34.4036 61.2482 32.0832 61.2482H17.5006V69.9998H32.0832C36.7247 69.9998 41.176 68.156 44.458 64.874C47.74 61.592 49.5839 57.1406 49.5839 52.4992C49.5839 47.8577 47.74 43.4064 44.458 40.1244C41.176 36.8423 36.7247 34.9985 32.0832 34.9985Z" fill="#E5792A"/>
<path d="M69.8423 35.0673C68.5723 36.0384 67.0931 36.6994 65.5224 36.9975C63.9518 37.2956 62.3333 37.2226 60.7958 36.7843C59.2584 36.346 57.8447 35.5546 56.6673 34.4731C55.4899 33.3917 54.5815 32.0501 54.0146 30.5553H81.1656C82.09 26.104 81.2882 21.4677 78.9226 17.5852C76.5571 13.7028 72.8046 10.8644 68.4249 9.6448C64.0452 8.42518 59.3657 8.91548 55.334 11.0164C51.3022 13.1174 48.2195 16.672 46.7101 20.9604C45.2006 25.2488 45.3773 29.9506 47.2042 34.1137C49.0312 38.2768 52.3719 41.59 56.55 43.3825C60.728 45.175 65.4311 45.3128 69.7069 43.768C73.9827 42.2232 77.5117 39.1112 79.5793 35.0623L69.8423 35.0673ZM63.609 16.645C65.875 16.6445 68.0776 17.3934 69.8737 18.7751C71.6698 20.1567 72.9586 22.0935 73.5395 24.2838H53.6784C54.2593 22.0935 55.5481 20.1567 57.3442 18.7751C59.1403 17.3934 61.3429 16.6445 63.609 16.645Z" fill="#E5792A"/>
</g>
<defs>
<clipPath id="clip0">
<rect width="156.821" height="70" fill="white"/>
</clipPath>
</defs>
</svg>
